PathFileType	4	(X/Y/Z)	 s11c0301.trc
DataRate	CameraRate	NumFrames	NumMarkers	Units	OrigDataRate	OrigDataStartFrame	OrigNumFrames
200	200	6	48	mm	200	751	2000
Frame#	Time	racr			lacr			c7			jug			rlel			rdr			llel			ldr			s2			lic			ric			lasi			rasi			rpsi			lpsi			rgt			lgt			rth1			rth2			rth3			rth4			rlfc			rmfc			rsh1			rsh2			rsh3			rsh4			rlmal			rcal			rtoe			rmt5			lth1			lth2			lth4			lth3			llfc			lmfc			llmal			lcal			lmt5			lsh1			lsh2			lsh3			lsh4			ltoe			SBIKE			LBIKE			RBIKE			
		X1	Y1	Z1	X2	Y2	Z2	X3	Y3	Z3	X4	Y4	Z4	X5	Y5	Z5	X6	Y6	Z6	X7	Y7	Z7	X8	Y8	Z8	X9	Y9	Z9	X10	Y10	Z10	X11	Y11	Z11	X12	Y12	Z12	X13	Y13	Z13	X14	Y14	Z14	X15	Y15	Z15	X16	Y16	Z16	X17	Y17	Z17	X18	Y18	Z18	X19	Y19	Z19	X20	Y20	Z20	X21	Y21	Z21	X22	Y22	Z22	X23	Y23	Z23	X24	Y24	Z24	X25	Y25	Z25	X26	Y26	Z26	X27	Y27	Z27	X28	Y28	Z28	X29	Y29	Z29	X30	Y30	Z30	X31	Y31	Z31	X32	Y32	Z32	X33	Y33	Z33	X34	Y34	Z34	X35	Y35	Z35	X36	Y36	Z36	X37	Y37	Z37	X38	Y38	Z38	X39	Y39	Z39	X40	Y40	Z40	X41	Y41	Z41	X42	Y42	Z42	X43	Y43	Z43	X44	Y44	Z44	X45	Y45	Z45	X46	Y46	Z46	X47	Y47	Z47	X48	Y48	Z48	
751	3.7550	821.466648	1352.524688	-81.116878	792.667598	1377.259261	-415.719029	783.229392	1453.880408	-240.969128	765.084051	1263.101360	-256.076221	675.533443	1143.893903	68.719623	798.147990	929.115352	-36.274151	645.581991	1145.178857	-581.464194	810.780765	927.634896	-441.661352	168.263016	1304.103326	-207.978740	373.325823	1328.189794	-427.157570	397.290742	1221.824909	-44.563474	388.473162	1242.859126	-399.448729	408.124392	1167.883357	-88.868297	237.575344	1353.818589	-146.565809	221.102601	1367.675195	-236.406576	272.986271	1105.582821	-34.582682	284.397013	1210.876406	-454.014251	282.146167	990.796390	-34.420500	307.494248	906.000733	-46.905975	287.569606	822.833979	-64.886313	343.729045	908.498461	-53.697187	295.811457	717.389868	-86.429772	298.371448	698.830772	-216.238222	246.215845	568.479937	-67.829351	248.278125	481.125007	-81.312677	207.519910	404.193785	-81.500546	276.576046	477.121265	-107.713404	170.337375	270.258457	-88.481810	111.302297	282.971335	-138.382992	354.399542	128.757181	-135.419338	278.679154	131.816750	-66.597583	411.366385	1121.647137	-472.468653	489.876958	1087.114869	-467.265770	513.326617	1115.394267	-458.027118	544.531306	1016.314751	-474.419814	636.498050	918.436334	-451.114691	647.948093	902.426170	-318.519571	300.643772	651.887762	-416.721825	237.802537	668.706169	-382.126622	320.993926	475.584544	-437.865627	542.988185	841.627259	-465.482612	496.034911	771.093608	-448.416626	417.982670	730.469597	-441.439970	519.478802	749.890645	-426.694220	393.416971	414.570720	-366.882740	-204.208636	957.750203	-260.839061	1.520098	82.759147	-460.978608	-15.137823	81.157148	-62.426452	
752	3.7600	822.600152	1353.800503	-83.465655	791.093820	1379.025709	-418.504062	782.891205	1454.349511	-242.896024	764.056908	1263.514406	-257.017031	677.212048	1145.592392	67.329669	798.497379	929.155531	-36.340883	642.389121	1144.198843	-581.490871	810.467661	928.078336	-441.962322	168.652016	1305.540661	-205.274796	371.240215	1329.560520	-427.169987	399.741859	1222.174273	-45.560102	387.190190	1243.918827	-399.896131	409.566154	1168.371943	-89.544341	238.953235	1354.860415	-144.817324	221.453099	1368.183820	-234.824539	273.390066	1106.519563	-33.806312	282.929224	1211.949729	-453.249850	281.587420	991.901408	-33.779477	306.960833	906.905158	-46.152289	287.395422	823.556492	-64.435300	343.256201	909.232894	-52.384722	295.251850	718.274315	-84.898120	299.018385	699.040791	-214.179245	243.779792	569.399182	-66.919627	244.187081	481.982660	-80.610192	201.936885	405.755309	-81.018495	272.357431	477.478420	-107.215109	161.744457	272.522833	-88.261442	102.929197	286.859011	-138.068985	343.864208	128.416158	-135.797593	268.287148	132.468172	-67.020531	410.950673	1122.598423	-471.629431	489.805308	1089.005197	-466.225667	513.137485	1117.980208	-458.036704	545.245438	1018.963594	-473.591879	639.997745	922.693717	-449.307656	651.453344	906.429663	-316.607177	307.468365	650.887768	-415.675895	243.810634	666.442200	-381.595509	331.583259	475.287950	-437.294321	547.501706	844.213324	-463.681910	501.366932	772.957886	-447.030630	423.794266	731.416888	-440.335797	524.951803	752.145150	-425.338098	405.244084	415.891958	-366.456742	-204.238534	957.750960	-260.800201	1.498048	82.775417	-460.967986	-15.085670	81.212467	-62.548725	
753	3.7650	823.499920	1355.007006	-85.765589	789.586241	1380.540573	-421.160939	782.723582	1454.395362	-244.931446	763.295117	1263.481015	-257.764725	678.661493	1147.238857	66.141318	798.743360	929.267500	-36.267075	639.003527	1143.111106	-581.512148	810.175491	928.428401	-442.249870	168.854858	1307.337511	-202.928164	369.440115	1330.719799	-426.987928	401.743915	1222.700227	-46.817429	385.925797	1244.783448	-400.278387	410.774284	1169.045081	-90.435652	240.216751	1356.208993	-143.170958	222.148463	1369.170116	-234.106137	273.579637	1107.753673	-33.312443	281.777240	1213.183285	-452.665332	281.654650	992.778261	-33.418878	307.399621	908.045005	-45.550347	288.252395	824.481347	-63.552917	343.748113	910.469343	-51.297629	296.143586	718.843510	-83.368153	300.823393	699.201275	-212.303653	242.700630	570.460446	-66.050529	240.951696	483.120444	-79.950502	197.049835	407.835869	-80.428935	268.958470	478.115685	-106.642568	153.480584	275.442038	-87.994675	95.069445	290.795750	-137.941295	333.307651	128.986950	-136.055200	257.628414	134.017303	-67.092738	410.443992	1123.445064	-470.943247	489.525512	1090.621583	-465.363338	512.829694	1120.109610	-458.137141	545.606705	1021.220684	-472.705748	642.759830	926.432950	-447.618112	655.966031	909.622358	-313.651977	314.003430	649.138564	-414.651534	249.500648	663.286542	-380.978868	342.035007	474.166828	-436.428295	551.565798	846.250268	-462.049890	506.385662	774.313138	-445.597101	429.398570	731.606609	-439.179733	530.247214	753.763479	-423.747815	416.917981	416.769078	-366.059521	-204.330225	957.662248	-260.649527	1.482007	82.758494	-460.962674	-15.110927	81.159753	-62.514000	
754	3.7700	824.147089	1356.013039	-88.063983	788.214059	1381.608819	-423.571527	782.678101	1454.091553	-247.064351	762.709430	1263.096067	-258.506581	679.877332	1148.808746	65.300666	798.911689	929.439175	-36.063085	635.503956	1141.893987	-581.471659	809.791649	928.815326	-442.607791	168.921016	1309.749818	-201.710294	368.051047	1331.740419	-426.862455	403.517661	1223.477187	-48.126628	384.779094	1245.544995	-400.754356	411.625030	1170.154513	-91.522267	241.378350	1357.864066	-141.803128	223.234702	1370.397143	-234.015940	273.714010	1109.277886	-32.826551	280.944438	1214.467159	-452.102365	282.276787	993.825620	-33.148115	308.788362	909.249960	-44.877787	290.483259	825.476317	-62.430743	345.138435	911.894817	-50.370807	298.526157	719.308321	-82.074276	303.879338	698.912228	-210.258439	242.754559	571.803083	-65.102234	238.732088	484.639968	-79.330787	192.725110	410.563068	-79.848919	265.683431	478.575166	-107.232361	145.506506	279.176988	-87.746161	87.416946	295.633304	-137.928280	322.881927	130.003960	-136.364067	247.349791	136.435445	-67.418429	409.818465	1124.130669	-470.248466	489.089705	1091.928679	-464.457648	511.044188	1119.023728	-451.758583	545.072813	1021.777929	-469.156746	644.559411	929.618842	-446.319643	658.056521	912.283308	-312.872395	320.121724	646.690225	-413.505456	254.836608	659.392097	-380.366825	352.161785	472.960949	-436.344131	555.109656	847.682441	-460.320244	510.993288	774.992325	-444.115177	434.624597	731.227059	-438.008602	535.042909	754.923708	-422.063652	428.385029	416.960699	-365.586473	-204.372976	957.662405	-260.687395	1.467941	82.776174	-460.973019	-15.117077	81.210890	-62.539641	
755	3.7750	824.676335	1356.601155	-90.226677	786.917730	1382.214027	-425.742316	782.900340	1453.593900	-249.061694	758.784010	1262.930297	-266.389342	680.925672	1150.275614	64.852129	798.984818	929.793274	-35.665976	631.856161	1140.607625	-581.367655	809.306308	929.323563	-443.082886	169.482708	1311.999638	-200.647754	366.998933	1332.436788	-426.697675	404.876657	1224.415490	-49.758173	383.748623	1246.159044	-401.234284	412.207391	1171.315445	-92.688464	242.439263	1359.891216	-140.949031	223.772160	1372.115596	-233.627659	273.832950	1110.999062	-32.429242	280.314096	1215.672345	-451.595224	283.456345	994.760796	-32.930516	311.215646	910.530971	-44.209675	294.029360	826.423232	-61.191207	347.438316	913.707951	-49.618986	302.237792	719.949804	-80.873854	307.996062	698.904283	-208.677412	243.952483	573.445380	-64.057039	237.280041	486.575194	-78.599502	189.196252	413.744671	-79.153611	263.893982	479.856179	-106.755431	137.935662	283.521889	-87.635208	80.211256	301.129627	-137.978013	312.688693	131.609921	-136.603739	237.418681	138.963421	-67.660750	409.110501	1124.651992	-469.540129	488.524629	1092.979361	-463.577063	510.418146	1120.354126	-451.327150	544.895861	1023.084015	-467.820409	645.280683	932.247733	-445.554558	657.767004	916.842739	-310.674888	325.883689	643.488908	-412.419753	259.939174	654.600216	-379.756234	362.162002	470.805862	-435.902301	558.116256	848.454736	-458.561434	515.088141	774.958194	-442.543412	439.461896	729.905273	-436.787381	539.405765	755.329624	-420.320779	439.684025	416.753195	-365.096342	-204.401372	957.717876	-260.749327	1.458090	82.786919	-460.958980	-15.134774	81.232284	-62.525926	
756	3.7800	824.981548	1357.047635	-92.344921	785.752854	1382.267497	-427.735817	783.212211	1452.835629	-251.187141	758.394024	1262.596731	-267.966237	681.708883	1151.536687	64.726042	799.127739	930.772097	-34.620564	628.098704	1139.187641	-581.159061	808.934762	929.936995	-443.399380	169.768626	1314.602936	-200.354492	366.354740	1333.256861	-426.842086	405.973963	1225.797271	-50.962589	382.935723	1246.770300	-401.665504	412.575765	1172.770080	-93.610449	243.214286	1362.186423	-140.362539	224.140590	1373.905032	-233.235921	273.973576	1112.816315	-32.089162	279.849829	1216.936190	-451.247574	284.904226	995.796790	-32.409511	314.365803	911.955372	-43.616954	298.430072	827.519461	-59.852196	350.554441	915.690413	-48.976091	307.324091	720.892492	-79.319862	313.217303	699.003904	-206.893490	245.981278	575.356609	-62.832266	236.649980	488.773070	-77.812793	186.414506	417.409832	-78.510384	262.812014	481.359580	-106.213869	130.864776	288.755749	-87.621857	73.487719	307.628095	-138.105401	302.712387	133.606078	-136.903155	227.571981	142.349100	-67.882755	408.371866	1125.237263	-468.854188	487.824679	1093.790339	-462.663386	509.686877	1121.326601	-450.751299	544.407539	1024.090574	-466.458546	646.201908	935.134097	-443.263720	658.186893	919.585275	-308.756427	331.255571	639.517900	-411.415235	264.627589	648.995097	-379.264359	371.879940	468.127960	-435.592331	560.469484	848.419315	-456.835334	518.667410	774.326706	-441.228838	443.748989	727.901412	-435.640105	543.148593	755.138664	-418.511464	450.652301	415.981462	-364.767517	-204.421822	957.749808	-260.761248	1.460685	82.833817	-461.003637	-15.124163	81.231975	-62.533953	
